<mxfile host="app.diagrams.net" agent="Mozilla/5.0 (Macintosh; Intel Mac OS X 10_15_7) AppleWebKit/537.36 (KHTML, like Gecko) Chrome/130.0.0.0 Safari/537.36" version="24.8.6">
  <diagram name="Page-1" id="zh8YsgOvJHd04u_SlwS_">
    <mxGraphModel dx="642" dy="703" grid="1" gridSize="10" guides="1" tooltips="1" connect="1" arrows="1" fold="1" page="1" pageScale="1" pageWidth="827" pageHeight="1169" math="0" shadow="0">
      <root>
        <mxCell id="0" />
        <mxCell id="1" parent="0" />
        <mxCell id="KcI2F709o0cNDK-86Cy3-1" value="4" style="rounded=0;whiteSpace=wrap;html=1;" vertex="1" parent="1">
          <mxGeometry x="240" y="320" width="160" height="40" as="geometry" />
        </mxCell>
        <mxCell id="KcI2F709o0cNDK-86Cy3-2" value="5" style="rounded=0;whiteSpace=wrap;html=1;" vertex="1" parent="1">
          <mxGeometry x="240" y="360" width="160" height="40" as="geometry" />
        </mxCell>
        <mxCell id="KcI2F709o0cNDK-86Cy3-4" value="6" style="rounded=0;whiteSpace=wrap;html=1;" vertex="1" parent="1">
          <mxGeometry x="240" y="410" width="160" height="40" as="geometry" />
        </mxCell>
        <mxCell id="KcI2F709o0cNDK-86Cy3-5" value="7" style="rounded=0;whiteSpace=wrap;html=1;" vertex="1" parent="1">
          <mxGeometry x="240" y="450" width="160" height="40" as="geometry" />
        </mxCell>
        <mxCell id="KcI2F709o0cNDK-86Cy3-6" value="8" style="rounded=0;whiteSpace=wrap;html=1;" vertex="1" parent="1">
          <mxGeometry x="240" y="500" width="160" height="40" as="geometry" />
        </mxCell>
        <mxCell id="KcI2F709o0cNDK-86Cy3-7" value="9" style="rounded=0;whiteSpace=wrap;html=1;" vertex="1" parent="1">
          <mxGeometry x="240" y="540" width="160" height="40" as="geometry" />
        </mxCell>
        <mxCell id="KcI2F709o0cNDK-86Cy3-8" value="2" style="rounded=0;whiteSpace=wrap;html=1;" vertex="1" parent="1">
          <mxGeometry x="240" y="230" width="160" height="40" as="geometry" />
        </mxCell>
        <mxCell id="KcI2F709o0cNDK-86Cy3-9" value="3" style="rounded=0;whiteSpace=wrap;html=1;" vertex="1" parent="1">
          <mxGeometry x="240" y="270" width="160" height="40" as="geometry" />
        </mxCell>
        <mxCell id="KcI2F709o0cNDK-86Cy3-10" value="0" style="rounded=0;whiteSpace=wrap;html=1;" vertex="1" parent="1">
          <mxGeometry x="240" y="140" width="160" height="40" as="geometry" />
        </mxCell>
        <mxCell id="KcI2F709o0cNDK-86Cy3-11" value="1" style="rounded=0;whiteSpace=wrap;html=1;" vertex="1" parent="1">
          <mxGeometry x="240" y="180" width="160" height="40" as="geometry" />
        </mxCell>
        <mxCell id="KcI2F709o0cNDK-86Cy3-12" value="10" style="rounded=0;whiteSpace=wrap;html=1;" vertex="1" parent="1">
          <mxGeometry x="240" y="585" width="160" height="40" as="geometry" />
        </mxCell>
        <mxCell id="KcI2F709o0cNDK-86Cy3-13" value="11" style="rounded=0;whiteSpace=wrap;html=1;" vertex="1" parent="1">
          <mxGeometry x="240" y="625" width="160" height="40" as="geometry" />
        </mxCell>
        <mxCell id="KcI2F709o0cNDK-86Cy3-14" value="16" style="rounded=0;whiteSpace=wrap;html=1;" vertex="1" parent="1">
          <mxGeometry x="410" y="320" width="160" height="40" as="geometry" />
        </mxCell>
        <mxCell id="KcI2F709o0cNDK-86Cy3-15" value="17" style="rounded=0;whiteSpace=wrap;html=1;" vertex="1" parent="1">
          <mxGeometry x="410" y="360" width="160" height="40" as="geometry" />
        </mxCell>
        <mxCell id="KcI2F709o0cNDK-86Cy3-16" value="18" style="rounded=0;whiteSpace=wrap;html=1;" vertex="1" parent="1">
          <mxGeometry x="410" y="410" width="160" height="40" as="geometry" />
        </mxCell>
        <mxCell id="KcI2F709o0cNDK-86Cy3-17" value="19" style="rounded=0;whiteSpace=wrap;html=1;" vertex="1" parent="1">
          <mxGeometry x="410" y="450" width="160" height="40" as="geometry" />
        </mxCell>
        <mxCell id="KcI2F709o0cNDK-86Cy3-18" value="20" style="rounded=0;whiteSpace=wrap;html=1;" vertex="1" parent="1">
          <mxGeometry x="410" y="500" width="160" height="40" as="geometry" />
        </mxCell>
        <mxCell id="KcI2F709o0cNDK-86Cy3-19" value="21" style="rounded=0;whiteSpace=wrap;html=1;" vertex="1" parent="1">
          <mxGeometry x="410" y="540" width="160" height="40" as="geometry" />
        </mxCell>
        <mxCell id="KcI2F709o0cNDK-86Cy3-20" value="14" style="rounded=0;whiteSpace=wrap;html=1;" vertex="1" parent="1">
          <mxGeometry x="410" y="230" width="160" height="40" as="geometry" />
        </mxCell>
        <mxCell id="KcI2F709o0cNDK-86Cy3-21" value="15" style="rounded=0;whiteSpace=wrap;html=1;" vertex="1" parent="1">
          <mxGeometry x="410" y="270" width="160" height="40" as="geometry" />
        </mxCell>
        <mxCell id="KcI2F709o0cNDK-86Cy3-22" value="12" style="rounded=0;whiteSpace=wrap;html=1;" vertex="1" parent="1">
          <mxGeometry x="410" y="140" width="160" height="40" as="geometry" />
        </mxCell>
        <mxCell id="KcI2F709o0cNDK-86Cy3-23" value="13" style="rounded=0;whiteSpace=wrap;html=1;" vertex="1" parent="1">
          <mxGeometry x="410" y="180" width="160" height="40" as="geometry" />
        </mxCell>
        <mxCell id="KcI2F709o0cNDK-86Cy3-24" value="22" style="rounded=0;whiteSpace=wrap;html=1;" vertex="1" parent="1">
          <mxGeometry x="410" y="585" width="160" height="40" as="geometry" />
        </mxCell>
        <mxCell id="KcI2F709o0cNDK-86Cy3-25" value="23" style="rounded=0;whiteSpace=wrap;html=1;" vertex="1" parent="1">
          <mxGeometry x="410" y="625" width="160" height="40" as="geometry" />
        </mxCell>
        <mxCell id="KcI2F709o0cNDK-86Cy3-26" value="28" style="rounded=0;whiteSpace=wrap;html=1;" vertex="1" parent="1">
          <mxGeometry x="580" y="320" width="160" height="40" as="geometry" />
        </mxCell>
        <mxCell id="KcI2F709o0cNDK-86Cy3-27" value="29" style="rounded=0;whiteSpace=wrap;html=1;" vertex="1" parent="1">
          <mxGeometry x="580" y="360" width="160" height="40" as="geometry" />
        </mxCell>
        <mxCell id="KcI2F709o0cNDK-86Cy3-28" value="30" style="rounded=0;whiteSpace=wrap;html=1;" vertex="1" parent="1">
          <mxGeometry x="580" y="410" width="160" height="40" as="geometry" />
        </mxCell>
        <mxCell id="KcI2F709o0cNDK-86Cy3-29" value="31" style="rounded=0;whiteSpace=wrap;html=1;" vertex="1" parent="1">
          <mxGeometry x="580" y="450" width="160" height="40" as="geometry" />
        </mxCell>
        <mxCell id="KcI2F709o0cNDK-86Cy3-30" value="32" style="rounded=0;whiteSpace=wrap;html=1;" vertex="1" parent="1">
          <mxGeometry x="580" y="500" width="160" height="40" as="geometry" />
        </mxCell>
        <mxCell id="KcI2F709o0cNDK-86Cy3-31" value="33" style="rounded=0;whiteSpace=wrap;html=1;" vertex="1" parent="1">
          <mxGeometry x="580" y="540" width="160" height="40" as="geometry" />
        </mxCell>
        <mxCell id="KcI2F709o0cNDK-86Cy3-32" value="26" style="rounded=0;whiteSpace=wrap;html=1;" vertex="1" parent="1">
          <mxGeometry x="580" y="230" width="160" height="40" as="geometry" />
        </mxCell>
        <mxCell id="KcI2F709o0cNDK-86Cy3-33" value="27" style="rounded=0;whiteSpace=wrap;html=1;" vertex="1" parent="1">
          <mxGeometry x="580" y="270" width="160" height="40" as="geometry" />
        </mxCell>
        <mxCell id="KcI2F709o0cNDK-86Cy3-34" value="24" style="rounded=0;whiteSpace=wrap;html=1;" vertex="1" parent="1">
          <mxGeometry x="580" y="140" width="160" height="40" as="geometry" />
        </mxCell>
        <mxCell id="KcI2F709o0cNDK-86Cy3-35" value="25" style="rounded=0;whiteSpace=wrap;html=1;" vertex="1" parent="1">
          <mxGeometry x="580" y="180" width="160" height="40" as="geometry" />
        </mxCell>
        <mxCell id="KcI2F709o0cNDK-86Cy3-36" value="34" style="rounded=0;whiteSpace=wrap;html=1;" vertex="1" parent="1">
          <mxGeometry x="580" y="585" width="160" height="40" as="geometry" />
        </mxCell>
        <mxCell id="KcI2F709o0cNDK-86Cy3-37" value="35" style="rounded=0;whiteSpace=wrap;html=1;" vertex="1" parent="1">
          <mxGeometry x="580" y="625" width="160" height="40" as="geometry" />
        </mxCell>
      </root>
    </mxGraphModel>
  </diagram>
</mxfile>
